<svg width="370" height="58" viewBox="0 0 370 58" fill="none" xmlns="http://www.w3.org/2000/svg">
<rect x="1" y="1" width="368" height="56" rx="28" fill="white" fill-opacity="0.05"/>
<rect x="1" y="1" width="368" height="56" rx="28" stroke="#71619F" stroke-opacity="0.4" stroke-linecap="round" stroke-dasharray="3 3"/>
<path d="M64.98 35V33.352C66.068 32.456 66.9747 31.6827 67.7 31.032C68.436 30.3707 69.0227 29.7893 69.46 29.288C69.8973 28.7867 70.2067 28.328 70.388 27.912C70.58 27.4853 70.676 27.0693 70.676 26.664C70.676 26.1307 70.5267 25.7147 70.228 25.416C69.9293 25.1173 69.5133 24.968 68.98 24.968C68.4253 24.968 67.972 25.1333 67.62 25.464C67.268 25.784 67.0547 26.2373 66.98 26.824H64.868C64.9853 25.7467 65.4173 24.8933 66.164 24.264C66.9107 23.6347 67.8813 23.32 69.076 23.32C70.26 23.32 71.188 23.6293 71.86 24.248C72.5427 24.856 72.884 25.704 72.884 26.792C72.884 27.336 72.788 27.864 72.596 28.376C72.4147 28.8773 72.1053 29.4053 71.668 29.96C71.2413 30.504 70.6653 31.1067 69.94 31.768C69.2253 32.4187 68.3293 33.16 67.252 33.992L66.756 33.352H73.092V35H64.98ZM78.7011 35.16C77.7625 35.16 76.9305 34.9093 76.2051 34.408C75.4798 33.896 74.9091 33.192 74.4931 32.296C74.0878 31.3893 73.8851 30.3547 73.8851 29.192C73.8851 28.0293 74.0878 27.0107 74.4931 26.136C74.8985 25.2507 75.4638 24.5627 76.1891 24.072C76.9251 23.5707 77.7625 23.32 78.7011 23.32C79.6505 23.32 80.4878 23.5707 81.2131 24.072C81.9385 24.5627 82.5038 25.2507 82.9091 26.136C83.3251 27.0107 83.5331 28.0293 83.5331 29.192C83.5331 30.3653 83.3251 31.4 82.9091 32.296C82.5038 33.192 81.9385 33.896 81.2131 34.408C80.4878 34.9093 79.6505 35.16 78.7011 35.16ZM78.7011 33.416C79.2878 33.416 79.7731 33.2293 80.1571 32.856C80.5411 32.4827 80.8291 31.976 81.0211 31.336C81.2238 30.696 81.3251 29.976 81.3251 29.176C81.3251 28.376 81.2291 27.6667 81.0371 27.048C80.8451 26.4293 80.5518 25.944 80.1571 25.592C79.7731 25.24 79.2878 25.064 78.7011 25.064C78.1251 25.064 77.6398 25.2453 77.2451 25.608C76.8611 25.96 76.5731 26.4453 76.3811 27.064C76.1891 27.6827 76.0931 28.3867 76.0931 29.176C76.0931 29.9867 76.1891 30.712 76.3811 31.352C76.5731 31.992 76.8665 32.4987 77.2611 32.872C77.6558 33.2347 78.1358 33.416 78.7011 33.416ZM84.9905 35L93.4705 23.48H95.1505L86.6705 35H84.9905ZM93.1345 35.16C92.6865 35.16 92.2652 35.0533 91.8705 34.84C91.4758 34.6267 91.1558 34.3013 90.9105 33.864C90.6652 33.4267 90.5425 32.872 90.5425 32.2C90.5425 31.528 90.6598 30.9787 90.8945 30.552C91.1398 30.1147 91.4598 29.7893 91.8545 29.576C92.2492 29.3627 92.6758 29.256 93.1345 29.256C93.6145 29.256 94.0518 29.3627 94.4465 29.576C94.8518 29.7893 95.1718 30.1147 95.4065 30.552C95.6412 30.9787 95.7585 31.528 95.7585 32.2C95.7585 32.872 95.6358 33.4267 95.3905 33.864C95.1452 34.3013 94.8198 34.6267 94.4145 34.84C94.0198 35.0533 93.5932 35.16 93.1345 35.16ZM93.1345 33.944C93.4972 33.944 93.8012 33.7947 94.0465 33.496C94.2918 33.1973 94.4145 32.76 94.4145 32.184C94.4145 31.6293 94.2918 31.208 94.0465 30.92C93.8118 30.6213 93.5078 30.472 93.1345 30.472C92.7612 30.472 92.4572 30.6213 92.2225 30.92C91.9985 31.208 91.8865 31.6293 91.8865 32.184C91.8865 32.76 91.9985 33.1973 92.2225 33.496C92.4572 33.7947 92.7612 33.944 93.1345 33.944ZM86.8945 29.224C86.4358 29.224 86.0092 29.1173 85.6145 28.904C85.2198 28.6907 84.8998 28.3653 84.6545 27.928C84.4198 27.4907 84.3025 26.936 84.3025 26.264C84.3025 25.592 84.4198 25.0427 84.6545 24.616C84.8998 24.1787 85.2198 23.8533 85.6145 23.64C86.0092 23.4267 86.4358 23.32 86.8945 23.32C87.3745 23.32 87.8118 23.4267 88.2065 23.64C88.6012 23.8533 88.9158 24.1787 89.1505 24.616C89.3852 25.0427 89.5025 25.592 89.5025 26.264C89.5025 26.936 89.3798 27.4907 89.1345 27.928C88.8892 28.3653 88.5692 28.6907 88.1745 28.904C87.7798 29.1173 87.3532 29.224 86.8945 29.224ZM86.8945 28.008C87.2572 28.008 87.5612 27.8587 87.8065 27.56C88.0518 27.2613 88.1745 26.824 88.1745 26.248C88.1745 25.6933 88.0518 25.272 87.8065 24.984C87.5718 24.6853 87.2678 24.536 86.8945 24.536C86.5212 24.536 86.2172 24.68 85.9825 24.968C85.7585 25.256 85.6465 25.6827 85.6465 26.248C85.6465 26.824 85.7585 27.2613 85.9825 27.56C86.2172 27.8587 86.5212 28.008 86.8945 28.008ZM105.446 35.16C104.614 35.16 103.846 35.016 103.142 34.728C102.438 34.44 101.825 34.0293 101.302 33.496C100.79 32.9627 100.39 32.3333 100.102 31.608C99.825 30.872 99.6864 30.0667 99.6864 29.192C99.6864 28.0293 99.9317 27.0107 100.422 26.136C100.913 25.2507 101.59 24.5627 102.454 24.072C103.329 23.5707 104.321 23.32 105.43 23.32C106.561 23.32 107.558 23.5707 108.422 24.072C109.297 24.5627 109.98 25.2507 110.47 26.136C110.961 27.0213 111.206 28.0453 111.206 29.208C111.206 30.0827 111.062 30.8827 110.774 31.608C110.497 32.3333 110.097 32.9627 109.574 33.496C109.062 34.0293 108.454 34.44 107.75 34.728C107.046 35.016 106.278 35.16 105.446 35.16ZM105.43 33.464C106.156 33.464 106.79 33.2827 107.334 32.92C107.889 32.5573 108.321 32.056 108.63 31.416C108.94 30.7653 109.094 30.0187 109.094 29.176C109.094 28.344 108.94 27.6187 108.63 27C108.332 26.3707 107.905 25.8853 107.35 25.544C106.806 25.192 106.166 25.016 105.43 25.016C104.705 25.016 104.065 25.192 103.51 25.544C102.966 25.8853 102.545 26.3653 102.246 26.984C101.948 27.6027 101.798 28.3333 101.798 29.176C101.798 30.0293 101.948 30.776 102.246 31.416C102.556 32.056 102.982 32.5573 103.526 32.92C104.081 33.2827 104.716 33.464 105.43 33.464ZM113.35 35V26.088C113.35 25.192 113.595 24.5093 114.086 24.04C114.587 23.56 115.334 23.32 116.326 23.32C116.55 23.32 116.736 23.3307 116.886 23.352C117.035 23.3733 117.179 23.4053 117.318 23.448V25.016C117.243 24.984 117.147 24.9627 117.03 24.952C116.912 24.9307 116.779 24.92 116.63 24.92C116.203 24.92 115.883 25.0267 115.67 25.24C115.467 25.4427 115.366 25.7413 115.366 26.136V35H113.35ZM111.878 28.424V26.84H117.142V28.424H111.878ZM119.205 35V26.088C119.205 25.192 119.45 24.5093 119.941 24.04C120.442 23.56 121.189 23.32 122.181 23.32C122.405 23.32 122.592 23.3307 122.741 23.352C122.89 23.3733 123.034 23.4053 123.173 23.448V25.016C123.098 24.984 123.002 24.9627 122.885 24.952C122.768 24.9307 122.634 24.92 122.485 24.92C122.058 24.92 121.738 25.0267 121.525 25.24C121.322 25.4427 121.221 25.7413 121.221 26.136V35H119.205ZM117.733 28.424V26.84H122.997V28.424H117.733ZM126.637 35L130.877 23.48H132.669L128.685 35H126.637ZM135.325 35L131.357 23.48H133.245L137.469 35H135.325ZM128.829 30.472H135.133V32.136H128.829V30.472ZM138.835 35V23.48H140.851V35H138.835ZM142.831 35V23.48H144.847V35H142.831ZM149.681 35V23.48H154.849C155.692 23.48 156.412 23.624 157.009 23.912C157.617 24.2 158.081 24.6053 158.401 25.128C158.732 25.6507 158.897 26.2693 158.897 26.984C158.897 27.688 158.732 28.3067 158.401 28.84C158.071 29.3733 157.607 29.7893 157.009 30.088C156.412 30.376 155.692 30.52 154.849 30.52H151.297V28.888H154.753C155.415 28.888 155.921 28.7173 156.273 28.376C156.636 28.0347 156.817 27.5707 156.817 26.984C156.817 26.408 156.636 25.9547 156.273 25.624C155.921 25.2933 155.415 25.128 154.753 25.128H151.761V35H149.681ZM160.273 35V23.48H162.289V35H160.273ZM169.358 35C169.304 34.7867 169.262 34.552 169.23 34.296C169.208 34.04 169.198 33.7307 169.198 33.368H169.134V29.496C169.134 29.0693 169.011 28.7493 168.766 28.536C168.531 28.312 168.168 28.2 167.678 28.2C167.198 28.2 166.814 28.2907 166.526 28.472C166.248 28.6427 166.078 28.8933 166.014 29.224H164.078C164.163 28.4667 164.526 27.8533 165.166 27.384C165.806 26.9147 166.664 26.68 167.742 26.68C168.862 26.68 169.71 26.936 170.286 27.448C170.862 27.9493 171.15 28.6907 171.15 29.672V33.368C171.15 33.624 171.166 33.8853 171.198 34.152C171.24 34.4187 171.299 34.7013 171.374 35H169.358ZM166.526 35.16C165.704 35.16 165.048 34.9573 164.558 34.552C164.078 34.136 163.838 33.5813 163.838 32.888C163.838 32.1413 164.11 31.5493 164.654 31.112C165.198 30.6747 165.966 30.3813 166.958 30.232L169.502 29.848V31.128L167.294 31.464C166.814 31.5387 166.451 31.672 166.206 31.864C165.971 32.056 165.854 32.3227 165.854 32.664C165.854 32.9733 165.966 33.2133 166.19 33.384C166.414 33.544 166.723 33.624 167.118 33.624C167.694 33.624 168.174 33.48 168.558 33.192C168.942 32.904 169.134 32.552 169.134 32.136L169.358 33.368C169.144 33.9547 168.792 34.4027 168.302 34.712C167.822 35.0107 167.23 35.16 166.526 35.16ZM173.031 35V26.84H174.999V28.76H175.047V35H173.031ZM178.759 35V29.848C178.759 29.3467 178.631 28.968 178.375 28.712C178.119 28.456 177.746 28.328 177.255 28.328C176.829 28.328 176.445 28.424 176.103 28.616C175.773 28.808 175.511 29.0747 175.319 29.416C175.138 29.7573 175.047 30.152 175.047 30.6L174.839 28.648C175.117 28.0507 175.522 27.576 176.055 27.224C176.589 26.8613 177.229 26.68 177.975 26.68C178.861 26.68 179.549 26.9307 180.039 27.432C180.541 27.9333 180.791 28.6 180.791 29.432V35H178.759ZM185.757 35.16C184.626 35.16 183.725 34.9253 183.053 34.456C182.381 33.976 182.013 33.3147 181.949 32.472H183.789C183.842 32.888 184.04 33.2027 184.381 33.416C184.722 33.6293 185.181 33.736 185.757 33.736C186.28 33.736 186.669 33.656 186.925 33.496C187.192 33.3253 187.325 33.0853 187.325 32.776C187.325 32.552 187.25 32.3707 187.101 32.232C186.952 32.0827 186.669 31.96 186.253 31.864L184.941 31.56C184.045 31.368 183.378 31.0693 182.941 30.664C182.514 30.248 182.301 29.7307 182.301 29.112C182.301 28.3547 182.589 27.7627 183.165 27.336C183.752 26.8987 184.557 26.68 185.581 26.68C186.594 26.68 187.405 26.8987 188.013 27.336C188.632 27.7627 188.973 28.3547 189.037 29.112H187.197C187.144 28.7813 186.973 28.5307 186.685 28.36C186.408 28.1893 186.024 28.104 185.533 28.104C185.074 28.104 184.728 28.1787 184.493 28.328C184.258 28.4667 184.141 28.6747 184.141 28.952C184.141 29.1653 184.232 29.3467 184.413 29.496C184.594 29.6347 184.898 29.7573 185.325 29.864L186.733 30.184C187.533 30.3653 188.136 30.68 188.541 31.128C188.957 31.576 189.165 32.104 189.165 32.712C189.165 33.4907 188.866 34.0933 188.269 34.52C187.672 34.9467 186.834 35.16 185.757 35.16ZM193.957 35V26.088C193.957 25.192 194.202 24.5093 194.693 24.04C195.194 23.56 195.941 23.32 196.933 23.32C197.157 23.32 197.344 23.3307 197.493 23.352C197.642 23.3733 197.786 23.4053 197.925 23.448V25.016C197.85 24.984 197.754 24.9627 197.637 24.952C197.52 24.9307 197.386 24.92 197.237 24.92C196.81 24.92 196.49 25.0267 196.277 25.24C196.074 25.4427 195.973 25.7413 195.973 26.136V35H193.957ZM192.485 28.424V26.84H197.749V28.424H192.485ZM202.416 35.16C201.552 35.16 200.789 34.9787 200.128 34.616C199.477 34.2533 198.971 33.752 198.608 33.112C198.245 32.4613 198.064 31.72 198.064 30.888C198.064 30.056 198.245 29.3253 198.608 28.696C198.971 28.0667 199.477 27.576 200.128 27.224C200.789 26.8613 201.552 26.68 202.416 26.68C203.291 26.68 204.053 26.8613 204.704 27.224C205.355 27.576 205.861 28.0667 206.224 28.696C206.587 29.3253 206.768 30.056 206.768 30.888C206.768 31.72 206.581 32.4613 206.208 33.112C205.845 33.752 205.339 34.2533 204.688 34.616C204.037 34.9787 203.28 35.16 202.416 35.16ZM202.416 33.544C202.843 33.544 203.227 33.4373 203.568 33.224C203.909 33 204.176 32.6907 204.368 32.296C204.56 31.8907 204.656 31.416 204.656 30.872C204.656 30.072 204.443 29.4427 204.016 28.984C203.6 28.5253 203.067 28.296 202.416 28.296C201.765 28.296 201.227 28.5253 200.8 28.984C200.373 29.4427 200.16 30.072 200.16 30.872C200.16 31.416 200.256 31.8907 200.448 32.296C200.651 32.6907 200.917 33 201.248 33.224C201.589 33.4373 201.979 33.544 202.416 33.544ZM208.091 35V26.84H210.059V28.808H210.107V35H208.091ZM210.107 30.744L209.899 28.808C210.091 28.1147 210.416 27.5867 210.875 27.224C211.333 26.8613 211.883 26.68 212.523 26.68C212.747 26.68 212.907 26.7013 213.003 26.744V28.648C212.949 28.6267 212.875 28.616 212.779 28.616C212.683 28.6053 212.565 28.6 212.427 28.6C211.648 28.6 211.067 28.7707 210.683 29.112C210.299 29.4533 210.107 29.9973 210.107 30.744ZM217.019 35V23.48H222.187C223.03 23.48 223.75 23.624 224.347 23.912C224.955 24.2 225.419 24.6053 225.739 25.128C226.07 25.6507 226.235 26.2693 226.235 26.984C226.235 27.688 226.07 28.3067 225.739 28.84C225.408 29.3733 224.944 29.7893 224.347 30.088C223.75 30.376 223.03 30.52 222.187 30.52H218.635V28.888H222.091C222.752 28.888 223.259 28.7173 223.611 28.376C223.974 28.0347 224.155 27.5707 224.155 26.984C224.155 26.408 223.974 25.9547 223.611 25.624C223.259 25.2933 222.752 25.128 222.091 25.128H219.099V35H217.019ZM230.001 35.16C229.435 35.16 228.945 35.0427 228.529 34.808C228.123 34.5627 227.809 34.232 227.585 33.816C227.371 33.4 227.265 32.9307 227.265 32.408V26.84H229.281V31.992C229.281 32.4933 229.403 32.872 229.649 33.128C229.905 33.384 230.262 33.512 230.721 33.512C231.137 33.512 231.499 33.416 231.809 33.224C232.129 33.032 232.379 32.7653 232.561 32.424C232.753 32.072 232.849 31.6773 232.849 31.24L233.057 33.192C232.79 33.7893 232.39 34.2693 231.857 34.632C231.334 34.984 230.715 35.16 230.001 35.16ZM232.913 35V33.08H232.849V26.84H234.881V35H232.913ZM236.857 35V26.84H238.825V28.808H238.873V35H236.857ZM238.873 30.744L238.665 28.808C238.857 28.1147 239.182 27.5867 239.641 27.224C240.1 26.8613 240.649 26.68 241.289 26.68C241.513 26.68 241.673 26.7013 241.769 26.744V28.648C241.716 28.6267 241.641 28.616 241.545 28.616C241.449 28.6053 241.332 28.6 241.193 28.6C240.414 28.6 239.833 28.7707 239.449 29.112C239.065 29.4533 238.873 29.9973 238.873 30.744ZM242.806 35V26.84H244.822V35H242.806ZM242.71 25.496V23.272H244.902V25.496H242.71ZM250.373 35.16C249.37 35.16 248.629 34.9253 248.149 34.456C247.68 33.976 247.445 33.2613 247.445 32.312V24.984L249.477 24.232V32.36C249.477 32.7547 249.584 33.048 249.797 33.24C250.01 33.432 250.346 33.528 250.805 33.528C250.986 33.528 251.146 33.5173 251.285 33.496C251.434 33.464 251.573 33.4267 251.701 33.384V34.952C251.573 35.016 251.392 35.064 251.157 35.096C250.922 35.1387 250.661 35.16 250.373 35.16ZM245.877 28.424V26.84H251.701V28.424H245.877ZM253.623 38.28L255.735 33.544L256.103 32.936L258.407 26.84H260.551L255.671 38.28H253.623ZM255.431 34.92L252.119 26.84H254.311L257.079 34.168L255.431 34.92ZM269.007 35.16C267.45 35.16 266.271 34.7173 265.471 33.832C264.671 32.9467 264.271 31.6773 264.271 30.024V23.48H266.351V30.328C266.351 31.384 266.586 32.1733 267.055 32.696C267.525 33.208 268.181 33.464 269.023 33.464C269.866 33.464 270.522 33.208 270.991 32.696C271.461 32.1733 271.695 31.3893 271.695 30.344V23.48H273.775V30.04C273.775 31.6827 273.37 32.9467 272.559 33.832C271.759 34.7173 270.575 35.16 269.007 35.16ZM278.579 35.16C277.449 35.16 276.547 34.9253 275.875 34.456C275.203 33.976 274.835 33.3147 274.771 32.472H276.611C276.665 32.888 276.862 33.2027 277.203 33.416C277.545 33.6293 278.003 33.736 278.579 33.736C279.102 33.736 279.491 33.656 279.747 33.496C280.014 33.3253 280.147 33.0853 280.147 32.776C280.147 32.552 280.073 32.3707 279.923 32.232C279.774 32.0827 279.491 31.96 279.075 31.864L277.763 31.56C276.867 31.368 276.201 31.0693 275.763 30.664C275.337 30.248 275.123 29.7307 275.123 29.112C275.123 28.3547 275.411 27.7627 275.987 27.336C276.574 26.8987 277.379 26.68 278.403 26.68C279.417 26.68 280.227 26.8987 280.835 27.336C281.454 27.7627 281.795 28.3547 281.859 29.112H280.019C279.966 28.7813 279.795 28.5307 279.507 28.36C279.23 28.1893 278.846 28.104 278.355 28.104C277.897 28.104 277.55 28.1787 277.315 28.328C277.081 28.4667 276.963 28.6747 276.963 28.952C276.963 29.1653 277.054 29.3467 277.235 29.496C277.417 29.6347 277.721 29.7573 278.147 29.864L279.555 30.184C280.355 30.3653 280.958 30.68 281.363 31.128C281.779 31.576 281.987 32.104 281.987 32.712C281.987 33.4907 281.689 34.0933 281.091 34.52C280.494 34.9467 279.657 35.16 278.579 35.16ZM287.151 35.16C286.287 35.16 285.53 34.9787 284.879 34.616C284.239 34.2533 283.738 33.752 283.375 33.112C283.023 32.472 282.847 31.736 282.847 30.904C282.847 30.072 283.023 29.3413 283.375 28.712C283.738 28.072 284.239 27.576 284.879 27.224C285.519 26.8613 286.266 26.68 287.119 26.68C287.93 26.68 288.634 26.8507 289.231 27.192C289.828 27.5227 290.292 27.992 290.623 28.6C290.954 29.208 291.119 29.9173 291.119 30.728C291.119 30.8773 291.114 31.016 291.103 31.144C291.092 31.272 291.076 31.4 291.055 31.528H284.095V30.12H289.503L289.087 30.504C289.087 29.736 288.911 29.16 288.559 28.776C288.207 28.392 287.716 28.2 287.087 28.2C286.404 28.2 285.86 28.4347 285.455 28.904C285.06 29.3733 284.863 30.0507 284.863 30.936C284.863 31.8107 285.06 32.4827 285.455 32.952C285.86 33.4107 286.431 33.64 287.167 33.64C287.594 33.64 287.967 33.56 288.287 33.4C288.607 33.24 288.842 32.9947 288.991 32.664H290.895C290.628 33.432 290.175 34.04 289.535 34.488C288.906 34.936 288.111 35.16 287.151 35.16ZM292.468 35V26.84H294.436V28.808H294.484V35H292.468ZM294.484 30.744L294.276 28.808C294.468 28.1147 294.793 27.5867 295.252 27.224C295.71 26.8613 296.26 26.68 296.9 26.68C297.124 26.68 297.284 26.7013 297.38 26.744V28.648C297.326 28.6267 297.252 28.616 297.156 28.616C297.06 28.6053 296.942 28.6 296.804 28.6C296.025 28.6 295.444 28.7707 295.06 29.112C294.676 29.4533 294.484 29.9973 294.484 30.744ZM301.521 35.16C300.391 35.16 299.489 34.9253 298.817 34.456C298.145 33.976 297.777 33.3147 297.713 32.472H299.553C299.607 32.888 299.804 33.2027 300.145 33.416C300.487 33.6293 300.945 33.736 301.521 33.736C302.044 33.736 302.433 33.656 302.689 33.496C302.956 33.3253 303.089 33.0853 303.089 32.776C303.089 32.552 303.015 32.3707 302.865 32.232C302.716 32.0827 302.433 31.96 302.017 31.864L300.705 31.56C299.809 31.368 299.143 31.0693 298.705 30.664C298.279 30.248 298.065 29.7307 298.065 29.112C298.065 28.3547 298.353 27.7627 298.929 27.336C299.516 26.8987 300.321 26.68 301.345 26.68C302.359 26.68 303.169 26.8987 303.777 27.336C304.396 27.7627 304.737 28.3547 304.801 29.112H302.961C302.908 28.7813 302.737 28.5307 302.449 28.36C302.172 28.1893 301.788 28.104 301.297 28.104C300.839 28.104 300.492 28.1787 300.257 28.328C300.023 28.4667 299.905 28.6747 299.905 28.952C299.905 29.1653 299.996 29.3467 300.177 29.496C300.359 29.6347 300.663 29.7573 301.089 29.864L302.497 30.184C303.297 30.3653 303.9 30.68 304.305 31.128C304.721 31.576 304.929 32.104 304.929 32.712C304.929 33.4907 304.631 34.0933 304.033 34.52C303.436 34.9467 302.599 35.16 301.521 35.16Z" fill="white"/>
</svg>
