<svg xmlns="http://www.w3.org/2000/svg" fill="none" viewBox="0 0 80 80" height="80" width="80">
<circle fill="#1F473E" r="40" cy="40" cx="40"></circle>
<path fill="white" d="M61.8711 27H57.048C56.5007 27 56.0446 27.39 55.9306 27.9455L53.3993 40.7682C53.1371 42.2336 52.738 43.4155 52.2249 44.3255C51.7346 45.2236 51.1189 45.8736 50.355 46.2991C49.6252 46.6891 48.7473 46.89 47.7553 46.89C46.9229 46.89 46.2046 46.7718 45.5889 46.5591C45.0074 46.3109 44.5285 45.9327 44.1522 45.4127C43.8558 44.9636 43.6847 44.42 43.5935 43.8055C42.5787 44.8218 41.3815 45.6964 39.9448 46.37C38.987 46.8191 37.938 47.15 36.832 47.41C37.5504 49.1473 38.7248 50.5182 40.4009 51.5109C42.134 52.4918 44.289 53 46.8545 53C50.6286 53 53.6388 52.0191 55.9078 50.0336C58.1768 48.0245 59.7047 45.0936 60.4573 41.2409L62.9771 28.4418C63.1254 27.6855 62.5895 27 61.8711 27Z"></path>
<path fill="white" d="M43.7584 27.7564C43.7584 27.7564 43.7584 27.7564 43.7698 27.7564C44.6135 28.4418 45.2862 29.2455 45.7993 30.1436L46.1414 28.4182C46.2896 27.6855 45.7537 27 45.024 27H42.6523C43.04 27.2364 43.4049 27.4727 43.7469 27.7445C43.7469 27.7445 43.7469 27.7445 43.7584 27.7445V27.7564Z"></path>
<path fill="white" d="M40.433 29.1864C38.62 27.7327 36.0545 27 32.7365 27H22.8053C22.2694 27 21.8019 27.39 21.6878 27.9455L17.0244 51.5582C16.8761 52.2909 17.4234 52.9764 18.1418 52.9764H23.0789C23.6262 52.9764 24.0823 52.5864 24.1963 52.0309L25.1655 47.1264C25.2795 46.5709 25.7356 46.1809 26.2829 46.1809H30.4789C33.0672 46.1809 35.3134 45.7436 37.229 44.8455C39.1445 43.9473 40.5926 42.6827 41.6302 41.0636C42.6564 39.4327 43.1695 37.53 43.1695 35.3436C43.1695 32.6964 42.2687 30.6518 40.4558 29.1864H40.433ZM34.4925 39.2436C33.6145 40.0118 32.3717 40.39 30.7868 40.39H27.8678C27.1495 40.39 26.6022 39.7045 26.7504 38.9718L27.788 33.7245C27.902 33.1691 28.3581 32.7791 28.9054 32.7791H31.7787C33.0558 32.7791 34.0364 33.0391 34.7433 33.5591C35.4502 34.0791 35.8037 34.8827 35.8037 35.97C35.8037 37.3882 35.3704 38.4636 34.4811 39.2436H34.4925Z"></path>
</svg>
