<svg width="130" height="130" viewBox="0 0 130 130" fill="none" xmlns="http://www.w3.org/2000/svg">
<path d="M70.3825 1.36752C72.6803 0.112185 75.346 -0.296058 77.9142 0.214078C80.4823 0.724213 82.7897 2.12031 84.4334 4.1586C85.6094 5.61338 87.1307 6.75077 88.8586 7.46717C90.5866 8.18358 92.4663 8.45622 94.3265 8.26027C96.9302 7.9829 99.5486 8.62766 101.726 10.0823C103.903 11.5369 105.501 13.7092 106.242 16.2209C106.77 18.0155 107.74 19.649 109.063 20.9718C110.386 22.2947 112.019 23.2647 113.813 23.7932C116.325 24.534 118.497 26.1323 119.951 28.3098C121.406 30.4872 122.05 33.106 121.773 35.7099C121.576 37.5704 121.849 39.4505 122.565 41.1788C123.282 42.9071 124.419 44.4284 125.874 45.6041C127.903 47.2553 129.289 49.5654 129.792 52.1326C130.294 54.6999 129.881 57.3621 128.625 59.6565C127.726 61.3015 127.255 63.1458 127.255 65.0202C127.255 66.8946 127.726 68.739 128.625 70.384C129.876 72.6849 130.282 75.352 129.77 77.921C129.259 80.49 127.863 82.7984 125.826 84.4445C124.371 85.6184 123.233 87.1383 122.517 88.8653C121.8 90.5922 121.528 92.4713 121.725 94.3306C122.004 96.9348 121.36 99.5542 119.905 101.732C118.45 103.91 116.277 105.508 113.765 106.247C111.97 106.776 110.337 107.746 109.014 109.069C107.692 110.391 106.722 112.025 106.193 113.82C105.453 116.331 103.855 118.504 101.677 119.958C99.5001 121.413 96.8816 122.058 94.278 121.78C92.4177 121.584 90.538 121.857 88.8101 122.573C87.0821 123.29 85.5609 124.427 84.3849 125.882C82.7381 127.902 80.4371 129.282 77.8801 129.785C75.323 130.287 72.6708 129.879 70.3825 128.632C68.7385 127.74 66.8978 127.273 65.0274 127.273C63.1571 127.273 61.3163 127.74 59.6724 128.632C57.3746 129.888 54.7088 130.296 52.1407 129.786C49.5725 129.276 47.2652 127.88 45.6214 125.841C44.4454 124.387 42.9242 123.249 41.1962 122.533C39.4683 121.816 37.5886 121.544 35.7283 121.74C33.1247 122.017 30.5063 121.372 28.329 119.918C26.1518 118.463 24.5536 116.291 23.813 113.779C23.2845 111.984 22.3146 110.351 20.9919 109.028C19.6692 107.705 18.0359 106.735 16.2415 106.207C13.7292 105.467 11.5562 103.869 10.1015 101.692C8.64678 99.5138 8.00274 96.8943 8.28169 94.2901C8.47847 92.4308 8.20619 90.5518 7.48976 88.8248C6.77333 87.0978 5.63557 85.578 4.18047 84.4041C2.1502 82.762 0.758168 80.4615 0.245526 77.9009C-0.267116 75.3404 0.131923 72.6812 1.37352 70.384C2.26558 68.7398 2.73283 66.8989 2.73283 65.0283C2.73283 63.1577 2.26558 61.3168 1.37352 59.6727C0.113976 57.3729 -0.296631 54.7034 0.213577 52.1314C0.723784 49.5594 2.1223 47.2487 4.16429 45.6041C5.61948 44.4284 6.75716 42.9071 7.47354 41.1788C8.18992 39.4505 8.46219 37.5704 8.26552 35.7099C7.98818 33.106 8.63287 30.4872 10.0873 28.3098C11.5418 26.1323 13.7139 24.534 16.2253 23.7932C18.0197 23.2647 19.653 22.2947 20.9757 20.9718C22.2984 19.649 23.2684 18.0155 23.7968 16.2209C24.5375 13.7092 26.1356 11.5369 28.3128 10.0823C30.4901 8.62766 33.1085 7.9829 35.7122 8.26027C37.5724 8.45622 39.4521 8.18358 41.1801 7.46717C42.908 6.75077 44.4293 5.61338 45.6053 4.1586C47.249 2.12031 49.5564 0.724213 52.1245 0.214078C54.6926 -0.296058 57.3584 0.112185 59.6562 1.36752C61.3021 2.26252 63.1459 2.73138 65.0193 2.73138C66.8928 2.73138 68.7365 2.26252 70.3825 1.36752Z" fill="#6E5BFB"/>
<path d="M67.6912 33.1838C68.8402 32.5561 70.173 32.352 71.4571 32.607C72.7412 32.8621 73.8948 33.5602 74.7167 34.5793C75.3047 35.3067 76.0653 35.8754 76.9293 36.2336C77.7933 36.5918 78.7331 36.7281 79.6633 36.6301C80.9651 36.4914 82.2743 36.8138 83.3629 37.5411C84.4516 38.2684 85.2506 39.3546 85.621 40.6105C85.8852 41.5078 86.3701 42.3245 87.0315 42.9859C87.6928 43.6474 88.5095 44.1324 89.4067 44.3966C90.6624 44.767 91.7484 45.5661 92.4757 46.6549C93.2029 47.7436 93.5252 49.053 93.3866 50.3549C93.2882 51.2852 93.4244 52.2253 93.7826 53.0894C94.1408 53.9535 94.7096 54.7142 95.4372 55.302C96.4516 56.1277 97.1446 57.2827 97.3958 58.5663C97.6471 59.85 97.4406 61.1811 96.8124 62.3283C96.3631 63.1507 96.1277 64.0729 96.1277 65.0101C96.1277 65.9473 96.3631 66.8695 96.8124 67.692C97.4382 68.8425 97.6409 70.176 97.3852 71.4605C97.1295 72.745 96.4316 73.8992 95.4129 74.7223C94.6854 75.3092 94.1165 76.0691 93.7583 76.9326C93.4001 77.7961 93.2639 78.7356 93.3623 79.6653C93.5018 80.9674 93.1798 82.2771 92.4524 83.366C91.7251 84.455 90.6386 85.2539 89.3824 85.6236C88.4852 85.8879 87.6686 86.3729 87.0072 87.0343C86.3459 87.6957 85.8609 88.5125 85.5967 89.4098C85.2263 90.6656 84.4273 91.7518 83.3387 92.4791C82.25 93.2064 80.9408 93.5288 79.639 93.3901C78.7089 93.2921 77.769 93.4284 76.905 93.7866C76.0411 94.1448 75.2804 94.7135 74.6924 95.4409C73.8691 96.4509 72.7186 97.1411 71.44 97.3923C70.1615 97.6434 68.8354 97.4397 67.6912 96.8162C66.8693 96.3702 65.9489 96.1365 65.0137 96.1365C64.0785 96.1365 63.1582 96.3702 62.3362 96.8162C61.1873 97.4439 59.8544 97.648 58.5703 97.393C57.2863 97.1379 56.1326 96.4399 55.3107 95.4207C54.7227 94.6933 53.9621 94.1246 53.0981 93.7664C52.2341 93.4082 51.2943 93.2719 50.3642 93.3699C49.0624 93.5086 47.7531 93.1862 46.6645 92.4589C45.5759 91.7316 44.7768 90.6454 44.4065 89.3896C44.1423 88.4922 43.6573 87.6755 42.9959 87.0141C42.3346 86.3527 41.5179 85.8676 40.6207 85.6034C39.3646 85.2337 38.2781 84.4347 37.5507 83.3458C36.8234 82.2569 36.5014 80.9472 36.6408 79.6451C36.7392 78.7154 36.6031 77.7759 36.2449 76.9124C35.8867 76.0489 35.3178 75.289 34.5902 74.702C33.5751 73.881 32.8791 72.7307 32.6228 71.4505C32.3664 70.1702 32.566 68.8406 33.1868 67.692C33.6328 66.8699 33.8664 65.9495 33.8664 65.0142C33.8664 64.0789 33.6328 63.1584 33.1868 62.3363C32.557 61.1865 32.3517 59.8517 32.6068 58.5657C32.8619 57.2797 33.5611 56.1244 34.5821 55.302C35.3097 54.7142 35.8786 53.9535 36.2368 53.0894C36.595 52.2253 36.7311 51.2852 36.6328 50.3549C36.4941 49.053 36.8164 47.7436 37.5437 46.6549C38.2709 45.5661 39.3569 44.767 40.6126 44.3966C41.5099 44.1324 42.3265 43.6474 42.9879 42.9859C43.6492 42.3245 44.1342 41.5078 44.3984 40.6105C44.7687 39.3546 45.5678 38.2684 46.6564 37.5411C47.745 36.8138 49.0543 36.4914 50.3561 36.6301C51.2862 36.7281 52.2261 36.5918 53.09 36.2336C53.954 35.8754 54.7146 35.3067 55.3026 34.5793C56.1245 33.5602 57.2782 32.8621 58.5623 32.607C59.8463 32.352 61.1792 32.5561 62.3281 33.1838C63.1511 33.6313 64.0729 33.8657 65.0097 33.8657C65.9464 33.8657 66.8683 33.6313 67.6912 33.1838Z" fill="white"/>
<path d="M75.7485 55.5184C75.7261 55.358 75.5831 55.2689 75.4644 55.2592C75.3467 55.2495 73.0396 55.2152 73.0396 55.2152C73.0396 55.2152 71.1101 53.3779 70.9195 53.191C70.729 53.0041 70.3567 53.0605 70.212 53.1028C70.2102 53.1037 69.8497 53.213 69.2428 53.3973C69.1412 53.0746 68.9919 52.6778 68.7788 52.2794C68.0919 50.9939 67.0859 50.3142 65.8703 50.3125C65.8685 50.3125 65.8676 50.3125 65.8658 50.3125C65.7812 50.3125 65.6976 50.3204 65.6132 50.3274C65.5772 50.2851 65.5412 50.2437 65.5035 50.2031C64.9739 49.6477 64.2951 49.3771 63.4814 49.4009C61.9116 49.4449 60.3481 50.5567 59.0804 52.5315C58.1885 53.9209 57.5096 55.6666 57.3173 57.0181C55.5146 57.5656 54.254 57.9482 54.2262 57.957C53.3163 58.2373 53.2875 58.2647 53.1688 59.1058C53.0807 59.7414 50.7 77.7935 50.7 77.7935L70.6516 81.1772L79.299 79.0692C79.299 79.0692 75.771 55.6789 75.7485 55.5184ZM68.2439 53.7005C67.7844 53.8398 67.262 53.9985 66.6956 54.1704C66.6839 53.3911 66.5895 52.3067 66.2191 51.3695C67.4104 51.5908 67.9966 52.9124 68.2439 53.7005ZM65.6518 54.4878C64.6062 54.8052 63.4652 55.1517 62.3207 55.4991C62.6425 54.2903 63.253 53.0869 64.0029 52.2979C64.2816 52.0043 64.6718 51.6772 65.1339 51.4903C65.5682 52.379 65.6626 53.6371 65.6518 54.4878ZM63.5128 50.4253C63.8815 50.4174 64.1917 50.4967 64.4569 50.6677C64.0325 50.8837 63.6225 51.1941 63.2378 51.5987C62.2406 52.6479 61.4764 54.2762 61.1716 55.8473C60.2213 56.1356 59.2916 56.4186 58.4357 56.6778C58.9761 54.2048 61.0898 50.4941 63.5128 50.4253Z" fill="#95BF47"/>
<path d="M75.4652 55.2633C75.3474 55.2536 73.0403 55.2192 73.0403 55.2192C73.0403 55.2192 71.1109 53.3819 70.9203 53.195C70.8493 53.1253 70.7531 53.0892 70.6523 53.0742L70.6533 81.1795L79.2998 79.0724C79.2998 79.0724 75.7718 55.683 75.7493 55.5225C75.7268 55.362 75.583 55.273 75.4652 55.2633Z" fill="#5E8E3E"/>
<path d="M65.8595 59.6209L64.8552 63.3051C64.8552 63.3051 63.735 62.8053 62.407 62.8872C60.4596 63.008 60.4389 64.2123 60.4587 64.5147C60.5648 66.1625 64.9856 66.5222 65.2338 70.3819C65.4289 73.4182 63.5911 75.4953 60.9433 75.6593C57.765 75.8559 56.0154 74.0177 56.0154 74.0177L56.6888 71.2089C56.6888 71.2089 58.4501 72.5119 59.8599 72.4247C60.7806 72.3673 61.1096 71.633 61.0763 71.1137C60.9379 68.9643 57.3379 69.0912 57.1105 65.5594C56.919 62.5875 58.9096 59.5759 63.3016 59.3043C64.9937 59.1977 65.8595 59.6209 65.8595 59.6209Z" fill="white"/>
</svg>
