<svg width="18" height="19" viewBox="0 0 18 19" fill="none" xmlns="http://www.w3.org/2000/svg">
<path d="M9 0.5C4.0372 0.5 0 4.5372 0 9.5C0 14.4628 4.0372 18.5 9 18.5C13.9628 18.5 18 14.4628 18 9.5C18 4.5372 13.9628 0.5 9 0.5Z" fill="#14854E"/>
<path d="M13.5616 7.59296L8.68654 12.4679C8.54028 12.6141 8.3483 12.6877 8.15631 12.6877C7.96432 12.6877 7.77234 12.6141 7.62608 12.4679L5.18863 10.0304C4.89529 9.73721 4.89529 9.26315 5.18863 8.96996C5.48183 8.67662 5.95575 8.67662 6.24908 8.96996L8.15631 10.8772L12.5011 6.5325C12.7943 6.23917 13.2682 6.23917 13.5616 6.5325C13.8548 6.8257 13.8548 7.29962 13.5616 7.59296Z" fill="#FAFAFA"/>
</svg>
