<svg width="36" height="35" viewBox="0 0 36 35" fill="none" xmlns="http://www.w3.org/2000/svg">
<path d="M32.5834 14.5837V18.9587C32.5834 24.792 29.6667 27.7087 23.8334 27.7087H23.1042C22.6521 27.7087 22.2146 27.9274 21.9375 28.292L19.75 31.2087C18.7875 32.492 17.2125 32.492 16.25 31.2087L14.0625 28.292C13.8292 27.9712 13.2896 27.7087 12.8959 27.7087H12.1667C6.33335 27.7087 3.41669 26.2503 3.41669 18.9587V11.667C3.41669 5.83366 6.33335 2.91699 12.1667 2.91699H20.9167" stroke="#1D1D1F" stroke-width="2" stroke-miterlimit="10" stroke-linecap="round" stroke-linejoin="round"/>
<path d="M28.9375 10.2087C30.9511 10.2087 32.5834 8.57636 32.5834 6.56283C32.5834 4.54929 30.9511 2.91699 28.9375 2.91699C26.924 2.91699 25.2917 4.54929 25.2917 6.56283C25.2917 8.57636 26.924 10.2087 28.9375 10.2087Z" stroke="#1D1D1F" stroke-width="2" stroke-linecap="round" stroke-linejoin="round"/>
<path d="M23.8282 16.0417H23.8412" stroke="#1D1D1F" stroke-width="2.5" stroke-linecap="round" stroke-linejoin="round"/>
<path d="M17.9934 16.0417H18.0065" stroke="#1D1D1F" stroke-width="2.5" stroke-linecap="round" stroke-linejoin="round"/>
<path d="M12.1587 16.0417H12.1718" stroke="#1D1D1F" stroke-width="2.5" stroke-linecap="round" stroke-linejoin="round"/>
</svg>
