<svg width="36" height="35" viewBox="0 0 36 35" fill="none" xmlns="http://www.w3.org/2000/svg">
<path d="M12.8958 27.7087H12.1666C6.33329 27.7087 3.41663 26.2503 3.41663 18.9587V11.667C3.41663 5.83366 6.33329 2.91699 12.1666 2.91699H23.8333C29.6666 2.91699 32.5833 5.83366 32.5833 11.667V18.9587C32.5833 24.792 29.6666 27.7087 23.8333 27.7087H23.1041C22.652 27.7087 22.2145 27.9274 21.9375 28.292L19.75 31.2087C18.7875 32.492 17.2125 32.492 16.25 31.2087L14.0625 28.292C13.8291 27.9712 13.2895 27.7087 12.8958 27.7087Z" stroke="#1D1D1F" stroke-width="2" stroke-miterlimit="10" stroke-linecap="round" stroke-linejoin="round"/>
<path d="M10.7084 11.667H25.2917" stroke="#1D1D1F" stroke-width="2" stroke-linecap="round" stroke-linejoin="round"/>
<path d="M10.7084 18.958H19.4584" stroke="#1D1D1F" stroke-width="2" stroke-linecap="round" stroke-linejoin="round"/>
</svg>
